<svg width="47" height="47" viewBox="0 0 47 47" fill="none" xmlns="http://www.w3.org/2000/svg">
<path d="M34.702 41.7773H11.202C10.8558 41.7773 10.5237 41.9149 10.2789 42.1597C10.034 42.4046 9.89648 42.7366 9.89648 43.0829C9.89648 43.4292 10.034 43.7612 10.2789 44.0061C10.5237 44.2509 10.8558 44.3885 11.202 44.3885H34.702C35.0483 44.3885 35.3804 44.2509 35.6252 44.0061C35.8701 43.7612 36.0076 43.4292 36.0076 43.0829C36.0076 42.7366 35.8701 42.4046 35.6252 42.1597C35.3804 41.9149 35.0483 41.7773 34.702 41.7773V41.7773Z" fill="#00EE98"/>
<path d="M41.1249 17.4291C40.4803 17.5596 39.8242 17.6252 39.1665 17.6249H38.5007C39.0628 20.2211 38.9504 22.9179 38.1743 25.4583C35.9838 25.6242 33.7808 25.4436 31.6465 24.923C31.6453 24.3758 31.4964 23.8391 31.2157 23.3694C32.7765 21.3219 34.0017 19.0391 34.8451 16.6066C34.2397 16.3097 33.6665 15.9509 33.1349 15.536C32.3704 17.8865 31.2187 20.0928 29.7274 22.0638C29.1581 21.8228 28.528 21.7649 27.9244 21.8983C27.3208 22.0316 26.7737 22.3496 26.359 22.808C25.9021 22.5469 25.4451 22.2858 25.0535 21.9855C22.418 20.227 20.217 17.8921 18.6171 15.1574C18.8757 14.8368 19.0639 14.4654 19.1696 14.0673C19.2753 13.6692 19.2961 13.2533 19.2307 12.8466C22.8132 11.6322 26.6466 11.3535 30.3671 12.0372C30.0454 11.3752 29.8001 10.6788 29.636 9.96132C25.8103 9.44255 21.9161 9.84541 18.2776 11.1363C17.8666 10.7358 17.3506 10.4597 16.7893 10.3399H16.4629C16.3062 9.7916 16.1626 9.24327 16.0451 8.68188C15.9276 8.12049 15.8624 7.62438 15.7971 7.0891C17.8822 5.96042 20.1977 5.3231 22.5667 5.2258C24.9357 5.12851 27.2956 5.57381 29.4662 6.52771C29.5743 5.62939 29.8072 4.75055 30.1582 3.9166C27.375 2.76562 24.3504 2.32026 21.3536 2.62011C18.3567 2.91996 15.4804 3.95574 12.9804 5.63533C10.4804 7.31493 8.43415 9.58629 7.02369 12.2474C5.61322 14.9086 4.88222 17.877 4.89569 20.8888C4.89569 21.4763 4.89569 22.0508 4.98708 22.6252C5.22265 25.0883 5.95588 27.478 7.14235 29.6494C8.32882 31.8207 9.94382 33.7286 11.8895 35.2573C13.8351 36.786 16.0709 37.9038 18.4613 38.5428C20.8518 39.1819 23.347 39.3289 25.796 38.975C28.2449 38.6211 30.5965 37.7737 32.7082 36.484C34.8199 35.1944 36.6478 33.4894 38.0811 31.4724C39.5143 29.4554 40.5231 27.1684 41.0463 24.75C41.5695 22.3315 41.5963 19.832 41.1249 17.403V17.4291ZM14.0476 8.18577C14.0476 8.45993 14.126 8.74716 14.1782 9.02132C14.2957 9.59577 14.4524 10.1572 14.609 10.7185C14.1091 11.0146 13.7067 11.4505 13.4515 11.9725C13.1963 12.4944 13.0995 13.0797 13.1729 13.656C11.1075 15.0007 9.26225 16.6566 7.70264 18.5649C8.01479 16.4992 8.73694 14.5168 9.8266 12.7344C10.9163 10.9519 12.3514 9.40536 14.0476 8.18577V8.18577ZM14.0476 28.696C13.5356 28.8652 13.0774 29.1669 12.7197 29.5705C12.3619 29.9741 12.1174 30.4651 12.011 30.9938H11.1754C9.06703 28.4791 7.80604 25.3632 7.57208 22.0899L7.71569 21.8419C9.35053 19.3069 11.4878 17.1341 13.9954 15.4577C14.3714 15.8504 14.8465 16.1341 15.3705 16.2789C15.8945 16.4237 16.4479 16.4241 16.9721 16.2802C18.7183 19.2312 21.1054 21.7521 23.9568 23.6566C24.4921 24.0091 25.0404 24.3355 25.5887 24.6488C25.5449 25.1482 25.6256 25.6506 25.8237 26.111C23.4345 28.0083 20.6786 29.3907 17.7293 30.1713C17.3873 29.5323 16.8292 29.0357 16.1548 28.7702C15.4803 28.5047 14.7335 28.4877 14.0476 28.7222V28.696ZM23.1865 36.5294C20.5313 36.5301 17.9201 35.8515 15.6012 34.558L15.9668 34.4797C16.4863 34.3092 16.9506 34.0024 17.3111 33.5914C17.6716 33.1803 17.9153 32.68 18.0165 32.1427C21.3548 31.2914 24.4714 29.7331 27.1554 27.5733C27.793 27.9459 28.5459 28.0693 29.269 27.9199C29.9922 27.7704 30.6345 27.3586 31.0721 26.7638C32.9141 27.2427 34.8089 27.4883 36.7121 27.4949H37.404C36.1436 30.2054 34.134 32.4988 31.6124 34.1042C29.0909 35.7097 26.1627 36.5602 23.1735 36.5555L23.1865 36.5294Z" fill="#F5F4FF"/>
<path d="M39.1664 14.3612C42.7716 14.3612 45.6942 11.4386 45.6942 7.83344C45.6942 4.22825 42.7716 1.30566 39.1664 1.30566C35.5613 1.30566 32.6387 4.22825 32.6387 7.83344C32.6387 11.4386 35.5613 14.3612 39.1664 14.3612Z" fill="#00EE98"/>
</svg>
