<svg width="47" height="47" viewBox="0 0 47 47" fill="none" xmlns="http://www.w3.org/2000/svg">
<path d="M11.75 5.875V11.75H5.875V5.875H11.75ZM2.9375 2.9375V14.6875H14.6875V2.9375H2.9375Z" fill="#00EE98"/>
<path d="M26.4375 10.2812V16.1562H20.5625V10.2812H26.4375ZM17.625 7.34375V19.0938H29.375V7.34375H17.625Z" fill="#00EE98"/>
<path d="M11.75 23.5V29.375H5.875V23.5H11.75ZM2.9375 20.5625V32.3125H14.6875V20.5625H2.9375Z" fill="#00EE98"/>
<path d="M32.3125 14.6875V23.5H23.5V32.3125H14.6875V44.0625H44.0625V14.6875H32.3125ZM26.4375 26.4375H32.3125V32.3125H26.4375V26.4375ZM23.5 41.125H17.625V35.25H23.5V41.125ZM32.3125 41.125H26.4375V35.25H32.3125V41.125ZM41.125 41.125H35.25V35.25H41.125V41.125ZM41.125 32.3125H35.25V26.4375H41.125V32.3125ZM35.25 23.5V17.625H41.125V23.5H35.25Z" fill="white"/>
</svg>
