<svg width="47" height="47" viewBox="0 0 47 47" fill="none" xmlns="http://www.w3.org/2000/svg">
<path d="M27.1553 4.04682C23.2387 1.95794 18.4081 3.26349 16.1887 7.18016L13.3164 12.1413L10.7053 10.7052C10.7053 10.444 10.4442 10.444 10.3137 10.444C9.66089 10.444 9.13867 10.9663 9.13867 11.619V21.019C9.13867 21.4107 9.26923 21.8024 9.66089 22.0635C9.79145 22.194 10.0526 22.194 10.1831 22.194C10.4442 22.194 10.5748 22.194 10.7053 22.0635L18.9303 17.3635C19.322 17.1024 19.4526 16.8413 19.4526 16.319C19.4526 15.9274 19.1914 15.5357 18.9303 15.2746L15.6664 13.4468L18.5387 8.48571C19.0609 7.57182 19.8442 6.78849 20.7581 6.26627C23.3692 4.83016 26.6331 5.8746 28.0692 8.48571C28.4609 9.13849 29.2442 9.26905 29.897 9.00794C30.5498 8.61627 30.6803 7.83294 30.4192 7.18016C29.5053 5.8746 28.4609 4.6996 27.1553 4.04682V4.04682Z" fill="#00EE98"/>
<path d="M42.0386 27.5469L38.1219 20.6274L41.1247 18.9302C41.5163 18.6691 41.6469 18.408 41.6469 17.8857C41.6469 17.4941 41.3858 17.1024 41.1247 16.8413L33.0302 12.1413C32.8997 12.0107 32.6386 12.0107 32.508 12.0107C31.8552 12.0107 31.333 12.533 31.333 13.1857V22.5857C31.333 22.9774 31.5941 23.3691 31.8552 23.6302C31.9858 23.7607 32.2469 23.7607 32.3775 23.7607C32.6386 23.7607 32.7691 23.6302 32.8997 23.6302L35.7719 21.933L39.6886 28.8524C40.6025 30.4191 40.6025 32.508 39.6886 34.0746C38.7747 35.6413 37.208 36.5552 35.5108 36.5552H34.3358C33.5525 36.5552 33.0302 37.0774 33.0302 37.8607C33.0302 38.6441 33.5525 39.1663 34.3358 39.1663H35.5108C38.2525 39.1663 40.733 37.7302 42.0386 35.2496C43.3441 33.0302 43.3441 30.0274 42.0386 27.5469Z" fill="white"/>
<path d="M28.3309 37.0781L20.2364 32.3781C20.1059 32.2475 19.8448 32.2475 19.7142 32.2475C19.0614 32.2475 18.5392 32.7697 18.5392 33.4225V36.8169H12.142C10.1837 36.8169 8.35588 35.7725 7.44199 34.0753C6.39755 32.2475 6.39755 30.0281 7.44199 28.2003C7.83366 27.5475 7.57255 26.7642 6.91977 26.3725C6.26699 25.9808 5.48366 26.2419 5.09199 26.8947C3.52533 29.5058 3.52533 32.7697 5.09199 35.3808C6.5281 37.8614 9.13922 39.4281 12.142 39.4281H18.4087V42.8225C18.4087 43.2142 18.6698 43.6058 18.9309 43.8669C19.0614 43.9975 19.3225 43.9975 19.4531 43.9975C19.5837 43.9975 19.8448 43.9975 19.9753 43.8669L28.2003 39.1669C28.592 38.9058 28.7226 38.6447 28.7226 38.1225C28.8531 37.6003 28.592 37.2086 28.3309 37.0781V37.0781Z" fill="white"/>
</svg>
